<svg width="18" height="17" viewBox="0 0 18 17" fill="none" xmlns="http://www.w3.org/2000/svg">
<path d="M12.125 6.375C12.125 8.34375 10.498 9.42383 9.04883 9.42383C7.23047 9.42383 6 7.97461 6 6.375C6 4.67969 7.38086 3.3125 9.0625 3.3125C10.2109 3.3125 11.3457 4.07812 11.3457 4.5293C11.3457 4.77539 11.1406 4.9668 10.9082 4.9668C10.4844 4.9668 10.2793 4.20117 9.0625 4.20117C7.85938 4.20117 6.875 5.1582 6.875 6.375C6.875 6.85352 7.25781 8.54883 9.0625 8.54883C10.1426 8.54883 11.0312 7.79688 11.2227 6.8125H9.39062C9.14453 6.8125 8.95312 6.62109 8.95312 6.375C8.95312 6.14258 9.14453 5.95117 9.39062 5.95117H11.6875C11.9199 5.9375 12.125 6.14258 12.125 6.375Z" fill="url(#paint0_linear_1_23)" fill-opacity="0.9"/>
<path d="M8.31869 16.6025C8.38754 16.7233 8.48678 16.8236 8.60639 16.8934C8.72601 16.9632 8.86178 17 8.99999 17C9.1382 17 9.27396 16.9632 9.39358 16.8934C9.5132 16.8236 9.61244 16.7233 9.68129 16.6025L17.8956 2.18675C17.9642 2.0663 18.0002 1.92978 18 1.79087C17.9998 1.65196 17.9633 1.51556 17.8943 1.39534C17.8253 1.27511 17.7261 1.1753 17.6068 1.10592C17.4874 1.03653 17.3521 1 17.2143 1L0.785707 1C0.647931 1 0.512578 1.03653 0.393224 1.10592C0.27387 1.1753 0.174711 1.27511 0.105694 1.39533C0.0366766 1.51554 0.000227081 1.65194 1.18434e-06 1.79084C-0.000224712 1.92974 0.0357815 2.06626 0.104408 2.1867L8.31869 16.6025ZM16.3998 2.26742L8.99999 15.2537L1.60022 2.26742L16.3998 2.26742Z" fill="url(#paint1_linear_1_23)"/>
<defs>
<linearGradient id="paint0_linear_1_23" x1="9" y1="3" x2="9" y2="10" gradientUnits="userSpaceOnUse">
<stop stop-color="#EA2027"/>
<stop offset="1" stop-color="#3F3E3E"/>
</linearGradient>
<linearGradient id="paint1_linear_1_23" x1="9" y1="17" x2="9" y2="1" gradientUnits="userSpaceOnUse">
<stop stop-color="#EA2027"/>
<stop offset="0.49925" stop-color="#EA2027"/>
<stop offset="1" stop-color="#3F3E3E"/>
</linearGradient>
</defs>
</svg>
